<?xml version="1.0" encoding="UTF-8"?>
<svg id="Layer_2" data-name="Layer 2" xmlns="http://www.w3.org/2000/svg" viewBox="0 0 830.77 146.96">
  <defs>
    <style>
      .cls-1, .cls-2 {
        fill: #ccc;
      }

      .cls-1, .cls-2, .cls-3 {
        stroke-width: 0px;
      }

      .cls-2 {
        fill-rule: evenodd;
      }

      .cls-3 {
        fill: #ff5c1f;
      }
    </style>
  </defs>
  <g id="Layer_1-2" data-name="Layer 1">
    <g>
      <g>
        <g>
          <path class="cls-1" d="M371.03,32.8c0-3.89.65-7.48,1.97-10.78,1.31-3.3,3.13-6.16,5.46-8.58,2.33-2.42,5.07-4.32,8.24-5.7,3.16-1.38,6.6-2.07,10.31-2.07s7.21.68,10.37,2.03c3.16,1.36,5.9,3.23,8.2,5.63,2.31,2.4,4.1,5.25,5.39,8.58s1.93,6.95,1.93,10.88-.64,7.56-1.93,10.88-3.08,6.18-5.39,8.58c-2.31,2.4-5.04,4.27-8.2,5.63-3.16,1.36-6.62,2.03-10.37,2.03s-7.14-.69-10.31-2.07c-3.16-1.38-5.91-3.28-8.24-5.7-2.33-2.42-4.15-5.28-5.46-8.58-1.31-3.3-1.97-6.89-1.97-10.78ZM383.91,32.8c0,2.12.33,4.08.98,5.86.65,1.79,1.56,3.32,2.71,4.61,1.15,1.29,2.53,2.29,4.14,3.02,1.6.72,3.36,1.09,5.25,1.09s3.77-.35,5.36-1.05c1.58-.7,2.95-1.7,4.1-2.98,1.15-1.29,2.03-2.82,2.64-4.61.61-1.78.92-3.79.92-6s-.31-4.21-.92-6c-.61-1.78-1.49-3.31-2.64-4.58-1.15-1.26-2.52-2.24-4.1-2.92-1.58-.68-3.37-1.02-5.36-1.02s-3.65.36-5.25,1.09c-1.61.72-2.98,1.73-4.14,3.02-1.15,1.29-2.06,2.83-2.71,4.61-.66,1.79-.98,3.74-.98,5.86Z"/>
          <path class="cls-1" d="M427.3,58.9V6.7h12.54v40h28.81v12.2h-41.36Z"/>
          <path class="cls-1" d="M515.64,36.6c0,3.66-.54,6.94-1.63,9.83-1.08,2.89-2.61,5.33-4.58,7.32-1.97,1.99-4.29,3.52-6.98,4.58-2.69,1.06-5.66,1.59-8.92,1.59s-6.44-.55-9.15-1.66c-2.71-1.11-5.04-2.68-6.98-4.71-1.94-2.03-3.44-4.49-4.47-7.36-1.04-2.87-1.56-6.07-1.56-9.59V6.7h12.54v29.83c0,7.23,3.19,10.85,9.56,10.85,3.16,0,5.56-.93,7.19-2.78,1.63-1.85,2.44-4.54,2.44-8.07V6.7h12.54v29.9Z"/>
          <path class="cls-1" d="M571.1,39.51c-.36,3.03-1.23,5.8-2.61,8.31-1.38,2.51-3.15,4.67-5.32,6.47-2.17,1.81-4.69,3.2-7.56,4.17-2.87.97-5.98,1.46-9.32,1.46-3.8,0-7.28-.67-10.44-2-3.16-1.33-5.89-3.2-8.17-5.59-2.28-2.4-4.06-5.25-5.32-8.58-1.27-3.32-1.9-6.97-1.9-10.95s.63-7.63,1.9-10.95c1.26-3.32,3.05-6.18,5.36-8.58,2.31-2.4,5.04-4.26,8.2-5.59,3.16-1.33,6.64-2,10.44-2,3.34,0,6.43.49,9.25,1.46,2.82.97,5.32,2.35,7.49,4.14,2.17,1.79,3.94,3.92,5.32,6.41,1.38,2.49,2.25,5.24,2.61,8.27h-13.22c-.45-2.31-1.71-4.16-3.76-5.56-2.06-1.4-4.53-2.12-7.42-2.17-2.03,0-3.86.34-5.49,1.02s-3.02,1.65-4.17,2.92c-1.15,1.27-2.05,2.8-2.68,4.61-.63,1.81-.95,3.82-.95,6.03,0,4.57,1.16,8.13,3.49,10.68,2.33,2.55,5.57,3.83,9.73,3.83,2.89,0,5.38-.72,7.46-2.17,2.08-1.45,3.34-3.32,3.8-5.63h13.29Z"/>
          <path class="cls-1" d="M575.51,6.7h12.54v20h18.98V6.7h12.54v52.21h-12.54v-20h-18.98v20h-12.54V6.7Z"/>
          <path class="cls-1" d="M668.6,36.6c0,3.66-.54,6.94-1.63,9.83-1.08,2.89-2.61,5.33-4.58,7.32-1.97,1.99-4.29,3.52-6.98,4.58-2.69,1.06-5.66,1.59-8.92,1.59s-6.44-.55-9.15-1.66c-2.71-1.11-5.04-2.68-6.98-4.71-1.94-2.03-3.44-4.49-4.47-7.36-1.04-2.87-1.56-6.07-1.56-9.59V6.7h12.54v29.83c0,7.23,3.19,10.85,9.56,10.85,3.16,0,5.56-.93,7.19-2.78,1.63-1.85,2.44-4.54,2.44-8.07V6.7h12.54v29.9Z"/>
          <path class="cls-1" d="M705.07,58.9l-17.76-22.37h-.68v22.37h-12.54V6.7h12.54v22.37h.68l17.76-22.37h15.26v.34l-10.58,13.29c-1.99,2.53-3.67,4.57-5.05,6.1-1.38,1.54-2.63,2.72-3.76,3.56-1.13.84-2.25,1.39-3.36,1.66-1.11.27-2.38.41-3.83.41h-1.36v1.36h1.36c1.54,0,2.85.11,3.93.34,1.08.23,2.18.75,3.29,1.56,1.11.81,2.34,2.01,3.7,3.59,1.36,1.58,3.07,3.71,5.15,6.37l10.44,13.29v.34h-15.19Z"/>
          <path class="cls-1" d="M758.43,58.9l-2.51-14.71c-.41-2.4-.76-4.4-1.05-6-.29-1.6-.52-3.14-.68-4.61-.16-1.47-.27-3.01-.34-4.61-.07-1.6-.1-3.6-.1-6v-2.71h-1.36v2.71c0,2.21-.03,4.07-.1,5.56-.07,1.49-.2,2.96-.41,4.41-.2,1.45-.47,3.02-.81,4.71-.34,1.69-.76,3.85-1.25,6.47l-2.78,14.78h-13.9l-9.42-52.21h12.75l2.1,12.54c.41,2.44.73,4.46.98,6.07.25,1.6.46,3.21.64,4.81.18,1.6.31,3.4.37,5.39.07,1.99.1,4.59.1,7.8v2.71h1.36v-2.71c0-2.44.01-4.52.03-6.24.02-1.72.06-3.22.1-4.51.04-1.29.11-2.43.2-3.42.09-.99.2-1.98.34-2.95.14-.97.28-2.01.44-3.12.16-1.11.35-2.38.58-3.83l1.83-12.54h15.05l1.83,12.75c.32,2.03.58,3.81.78,5.32.2,1.52.37,3.06.51,4.64.14,1.58.24,3.4.31,5.46.07,2.06.1,4.64.1,7.76v2.71h1.36v-2.71c0-2.53.04-4.75.14-6.64.09-1.9.21-3.7.37-5.39.16-1.69.37-3.42.64-5.19s.59-3.77.95-6.03l2.1-12.68h12.75l-9.42,52.21h-14.58Z"/>
          <path class="cls-1" d="M830.77,36.6c0,3.66-.54,6.94-1.63,9.83-1.08,2.89-2.61,5.33-4.58,7.32-1.97,1.99-4.29,3.52-6.98,4.58-2.69,1.06-5.66,1.59-8.92,1.59s-6.44-.55-9.15-1.66c-2.71-1.11-5.04-2.68-6.98-4.71-1.94-2.03-3.44-4.49-4.47-7.36-1.04-2.87-1.56-6.07-1.56-9.59V6.7h12.54v29.83c0,7.23,3.19,10.85,9.56,10.85,3.16,0,5.56-.93,7.19-2.78,1.63-1.85,2.44-4.54,2.44-8.07V6.7h12.54v29.9Z"/>
        </g>
        <g>
          <path class="cls-1" d="M421.67,120.87c-.36,3.03-1.23,5.8-2.61,8.31-1.38,2.51-3.15,4.67-5.32,6.47-2.17,1.81-4.69,3.2-7.56,4.17-2.87.97-5.98,1.46-9.32,1.46-3.8,0-7.28-.67-10.44-2-3.16-1.33-5.89-3.2-8.17-5.59-2.28-2.4-4.06-5.25-5.32-8.58-1.27-3.32-1.9-6.97-1.9-10.95s.63-7.63,1.9-10.95c1.26-3.32,3.05-6.18,5.36-8.58,2.31-2.4,5.04-4.26,8.2-5.59,3.16-1.33,6.64-2,10.44-2,3.34,0,6.43.49,9.25,1.46,2.82.97,5.32,2.35,7.49,4.14,2.17,1.79,3.94,3.92,5.32,6.41,1.38,2.49,2.25,5.24,2.61,8.27h-13.22c-.45-2.31-1.71-4.16-3.76-5.56-2.06-1.4-4.53-2.12-7.42-2.17-2.03,0-3.86.34-5.49,1.02s-3.02,1.65-4.17,2.92c-1.15,1.27-2.05,2.8-2.68,4.61-.63,1.81-.95,3.82-.95,6.03,0,4.57,1.16,8.13,3.49,10.68,2.33,2.55,5.57,3.83,9.73,3.83,2.89,0,5.38-.72,7.46-2.17,2.08-1.45,3.34-3.32,3.8-5.63h13.29Z"/>
          <path class="cls-1" d="M426.08,88.06h12.54v20h18.98v-20h12.54v52.21h-12.54v-20h-18.98v20h-12.54v-52.21Z"/>
          <path class="cls-1" d="M477.61,140.26v-52.21h12.54v52.21h-12.54Z"/>
          <path class="cls-1" d="M528.59,140.26l-17.76-22.37h-.68v22.37h-12.54v-52.21h12.54v22.37h.68l17.76-22.37h15.26v.34l-10.58,13.29c-1.99,2.53-3.67,4.57-5.05,6.1-1.38,1.54-2.63,2.72-3.76,3.56-1.13.84-2.25,1.39-3.36,1.66-1.11.27-2.38.41-3.83.41h-1.36v1.36h1.36c1.54,0,2.85.11,3.93.34,1.08.23,2.18.75,3.29,1.56,1.11.81,2.34,2.01,3.7,3.59,1.36,1.58,3.07,3.71,5.15,6.37l10.44,13.29v.34h-15.19Z"/>
          <path class="cls-1" d="M581.95,140.26l-2.51-14.71c-.41-2.4-.76-4.4-1.05-6-.29-1.6-.52-3.14-.68-4.61-.16-1.47-.27-3.01-.34-4.61-.07-1.6-.1-3.6-.1-6v-2.71h-1.36v2.71c0,2.21-.03,4.07-.1,5.56-.07,1.49-.2,2.96-.41,4.41-.2,1.45-.47,3.02-.81,4.71-.34,1.69-.76,3.85-1.25,6.47l-2.78,14.78h-13.9l-9.42-52.21h12.75l2.1,12.54c.41,2.44.73,4.46.98,6.07.25,1.6.46,3.21.64,4.81.18,1.6.31,3.4.37,5.39.07,1.99.1,4.59.1,7.8v2.71h1.36v-2.71c0-2.44.01-4.52.03-6.24.02-1.72.06-3.22.1-4.51.04-1.29.11-2.43.2-3.42.09-.99.2-1.98.34-2.95.14-.97.28-2.01.44-3.12.16-1.11.35-2.38.58-3.83l1.83-12.54h15.05l1.83,12.75c.32,2.03.58,3.81.78,5.32.2,1.52.37,3.06.51,4.64.14,1.58.24,3.4.31,5.46.07,2.06.1,4.64.1,7.76v2.71h1.36v-2.71c0-2.53.04-4.75.14-6.64.09-1.9.21-3.7.37-5.39.16-1.69.37-3.42.64-5.19s.59-3.77.95-6.03l2.1-12.68h12.75l-9.42,52.21h-14.58Z"/>
          <path class="cls-1" d="M610.02,140.26v-52.21h40v12.2h-27.46v7.8h26.44v12.2h-26.44v7.8h27.46v12.2h-40Z"/>
          <path class="cls-1" d="M681.27,140.26l-6.71-14.71c-.99-2.17-1.84-4.18-2.54-6.03-.7-1.85-1.28-3.62-1.73-5.29-.45-1.67-.78-3.29-.98-4.85-.2-1.56-.31-3.13-.31-4.71v-3.05h-2.03v38.65h-12.54v-52.21h16.81l6.71,13.49c1.22,2.4,2.21,4.51,2.98,6.34.77,1.83,1.37,3.58,1.8,5.25.43,1.67.73,3.33.92,4.98.18,1.65.27,3.49.27,5.53v3.05h2.03v-38.65h12.54v52.21h-17.22Z"/>
          <path class="cls-1" d="M751.18,114.16c0,3.89-.6,7.44-1.8,10.64-1.2,3.21-2.89,5.96-5.09,8.24-2.19,2.28-4.83,4.06-7.9,5.32-3.07,1.27-6.46,1.9-10.17,1.9h-20.27v-52.21h20.27c3.71,0,7.1.63,10.17,1.9,3.07,1.27,5.71,3.04,7.9,5.32,2.19,2.28,3.89,5.03,5.09,8.24,1.2,3.21,1.8,6.76,1.8,10.64ZM738.29,114.09c0-4.56-1.15-8.01-3.46-10.34-2.31-2.33-5.72-3.49-10.24-3.49h-6.1v27.8h6.1c4.47,0,7.88-1.19,10.2-3.56,2.33-2.37,3.49-5.84,3.49-10.41Z"/>
          <path class="cls-1" d="M799.86,117.96c0,3.66-.54,6.94-1.63,9.83-1.08,2.89-2.61,5.33-4.58,7.32-1.97,1.99-4.29,3.52-6.98,4.58-2.69,1.06-5.66,1.59-8.92,1.59s-6.44-.55-9.15-1.66c-2.71-1.11-5.04-2.68-6.98-4.71-1.94-2.03-3.44-4.49-4.47-7.36-1.04-2.87-1.56-6.07-1.56-9.59v-29.9h12.54v29.83c0,7.23,3.19,10.85,9.56,10.85,3.16,0,5.56-.93,7.19-2.78,1.63-1.85,2.44-4.54,2.44-8.07v-29.83h12.54v29.9Z"/>
        </g>
      </g>
      <g>
        <g>
          <path class="cls-2" d="M279.33,80.33c-.28.49-.64.96-1.06,1.38-2.59,2.59-6.8,2.59-9.39,0-2.59-2.59-2.59-6.8,0-9.39,2.59-2.59,6.8-2.59,9.39,0,.42.42.77.88,1.06,1.37l72.04-.04-77.79-38.9-43.63,21.82v40.88l43.63,21.82,77.96-38.98-72.21.04Z"/>
          <path class="cls-2" d="M0,68.62v16.78c0,5.74,4.65,10.39,10.39,10.39h15.91s0-37.56,0-37.56h-15.91c-5.74,0-10.39,4.65-10.39,10.39Z"/>
        </g>
        <g>
          <path class="cls-3" d="M225.45,111.06c-8.5-.31-18.02,1.6-26.61-.78-7.78-1.87-14.02-6.65-21.02-10.07-7.08-3.72-15.42-4.87-23.68-4.75-4.82-.01-9.73,0-14.46.82-7.27,1.14-13.7,4.69-19.97,8.39-10.29,6.69-23.46,9.17-35.12,4.51-4.71-1.77-8.93-4.66-13.17-7.23-4.23-2.64-9.37-4.74-14.57-5.55-7.39-1.05-15.4-1.6-22.23.86-6.29,2.72-3.35,8.87-.64,13.75,3.98,6.96,9.41,13.57,15.64,18.78,20.41,17.48,50.67,21.71,75.57,12.1,5.79-2.11,11.27-5.57,16.56-8.49,6.62-3.66,12.55-4.55,19.41-1.28,2.99,1.34,6.19,3.32,9.18,5.02,11.28,6.54,24.28,9.72,37.58,9.84,14.51.15,29.03-3.3,41.25-10.72,4.58-2.75,11.24-7.53,6.58-12.66-5.8-6.18-20.2-12.1-30.18-12.51h-.12Z"/>
          <path class="cls-3" d="M255.1,15.39C233.81-1.48,202.66-4.35,177.74,6.14c-6.14,2.48-11.85,6.8-17.86,9.29-7.05,2.99-12.97,1.23-19.61-2.59C104.78-10.66,54.4-1.07,33.77,37.24c-3.62,6.92-9.16,17.46,1.54,20.12,8.41,2.06,18.63,1.32,26.42-2.8,5.95-3.24,10.45-9.47,16.44-13.33,10.4-6.93,24.68-7.71,35.79-2.13,11.94,6.22,16.73,17.34,31.81,19.02,9.2,1.04,19.33.63,27.25-4.58,5.13-3.28,9.29-7.86,14.25-11.47,6.98-5.12,16.05-7.32,24.67-6.6,9.75.91,18.89,5.27,28.5,2.67,5.19-1.22,10.66-3.36,15.29-5.83,2.29-1.25,4.19-2.52,5.38-3.82,4.11-4.61-.64-8.52-5.91-13.02l-.1-.08Z"/>
        </g>
      </g>
    </g>
  </g>
</svg>