<?xml version="1.0" encoding="UTF-8"?>
<svg id="Layer_2" data-name="Layer 2" xmlns="http://www.w3.org/2000/svg" viewBox="0 0 707.83 490.52">
  <defs>
    <style>
      .cls-1 {
        fill-rule: evenodd;
      }

      .cls-1, .cls-2 {
        fill: #333;
      }

      .cls-1, .cls-2, .cls-3 {
        stroke-width: 0px;
      }

      .cls-3 {
        fill: #ff5c1f;
      }
    </style>
  </defs>
  <g id="Layer_1-2" data-name="Layer 1">
    <g>
      <g>
        <path class="cls-2" d="M0,323.5c0-5.98,1.01-11.52,3.03-16.6,2.02-5.08,4.82-9.48,8.4-13.2,3.58-3.72,7.81-6.65,12.68-8.77,4.87-2.12,10.16-3.18,15.87-3.18s11.1,1.04,15.97,3.13c4.87,2.09,9.08,4.98,12.63,8.66,3.55,3.69,6.32,8.09,8.3,13.21s2.98,10.7,2.98,16.75-.99,11.64-2.98,16.75-4.75,9.52-8.3,13.21c-3.55,3.69-7.76,6.58-12.63,8.66-4.87,2.09-10.2,3.13-15.97,3.13s-11-1.06-15.87-3.18c-4.87-2.12-9.1-5.04-12.68-8.77-3.58-3.72-6.39-8.12-8.4-13.2-2.02-5.08-3.03-10.61-3.03-16.6ZM19.83,323.5c0,3.27.5,6.28,1.51,9.03,1.01,2.75,2.4,5.12,4.18,7.1,1.77,1.98,3.9,3.53,6.37,4.64,2.47,1.11,5.17,1.67,8.09,1.67s5.81-.54,8.25-1.62c2.44-1.08,4.54-2.61,6.32-4.59,1.77-1.98,3.13-4.35,4.07-7.1.94-2.75,1.41-5.83,1.41-9.24s-.47-6.49-1.41-9.24c-.94-2.75-2.3-5.1-4.07-7.05-1.77-1.95-3.88-3.44-6.32-4.49-2.44-1.04-5.19-1.57-8.25-1.57s-5.62.56-8.09,1.67c-2.47,1.11-4.59,2.66-6.37,4.64-1.77,1.98-3.17,4.35-4.18,7.1-1.01,2.75-1.51,5.76-1.51,9.03Z"/>
        <path class="cls-2" d="M86.64,363.69v-80.38h19.31v61.59h44.36v18.79h-63.68Z"/>
        <path class="cls-2" d="M222.66,329.35c0,5.64-.83,10.68-2.51,15.14-1.67,4.45-4.02,8.21-7.05,11.27-3.03,3.06-6.61,5.41-10.75,7.05-4.14,1.63-8.72,2.45-13.73,2.45s-9.92-.85-14.09-2.56c-4.18-1.71-7.76-4.12-10.75-7.25-2.99-3.13-5.29-6.91-6.89-11.33-1.6-4.42-2.4-9.34-2.4-14.77v-46.03h19.31v45.93c0,11.13,4.91,16.7,14.72,16.7,4.87,0,8.56-1.43,11.06-4.28,2.51-2.85,3.76-6.99,3.76-12.42v-45.93h19.31v46.03Z"/>
        <path class="cls-2" d="M308.04,333.83c-.56,4.66-1.9,8.92-4.02,12.79-2.12,3.86-4.85,7.19-8.19,9.97-3.34,2.78-7.22,4.92-11.64,6.42-4.42,1.5-9.2,2.24-14.35,2.24-5.85,0-11.21-1.03-16.08-3.08-4.87-2.05-9.07-4.92-12.58-8.61-3.51-3.69-6.25-8.09-8.19-13.21-1.95-5.12-2.92-10.73-2.92-16.86s.97-11.74,2.92-16.86c1.95-5.12,4.7-9.52,8.25-13.21,3.55-3.69,7.76-6.56,12.63-8.61,4.87-2.05,10.23-3.08,16.08-3.08,5.15,0,9.9.75,14.25,2.24,4.35,1.5,8.19,3.62,11.53,6.37,3.34,2.75,6.07,6.04,8.19,9.86,2.12,3.83,3.46,8.07,4.02,12.74h-20.36c-.7-3.55-2.63-6.4-5.79-8.56-3.17-2.16-6.98-3.27-11.43-3.34-3.13,0-5.95.52-8.46,1.57s-4.65,2.54-6.42,4.49c-1.77,1.95-3.15,4.32-4.12,7.1-.98,2.78-1.46,5.88-1.46,9.29,0,7.03,1.79,12.51,5.38,16.44,3.58,3.93,8.58,5.9,14.98,5.9,4.45,0,8.28-1.11,11.48-3.34,3.2-2.23,5.15-5.12,5.85-8.66h20.46Z"/>
        <path class="cls-2" d="M314.83,283.31h19.31v30.79h29.23v-30.79h19.31v80.38h-19.31v-30.79h-29.23v30.79h-19.31v-80.38Z"/>
        <path class="cls-2" d="M458.15,329.35c0,5.64-.83,10.68-2.51,15.14-1.67,4.45-4.02,8.21-7.05,11.27-3.03,3.06-6.61,5.41-10.75,7.05-4.14,1.63-8.72,2.45-13.73,2.45s-9.92-.85-14.09-2.56c-4.18-1.71-7.76-4.12-10.75-7.25-2.99-3.13-5.29-6.91-6.89-11.33-1.6-4.42-2.4-9.34-2.4-14.77v-46.03h19.31v45.93c0,11.13,4.91,16.7,14.72,16.7,4.87,0,8.56-1.43,11.06-4.28,2.51-2.85,3.76-6.99,3.76-12.42v-45.93h19.31v46.03Z"/>
        <path class="cls-2" d="M514.31,363.69l-27.35-34.45h-1.04v34.45h-19.31v-80.38h19.31v34.45h1.04l27.35-34.45h23.49v.52l-16.28,20.46c-3.06,3.9-5.65,7.03-7.78,9.39-2.12,2.37-4.05,4.19-5.79,5.48-1.74,1.29-3.46,2.14-5.17,2.56-1.71.42-3.67.63-5.9.63h-2.09v2.09h2.09c2.37,0,4.38.17,6.05.52,1.67.35,3.36,1.15,5.06,2.4,1.7,1.25,3.6,3.1,5.69,5.53,2.09,2.44,4.73,5.71,7.93,9.81l16.08,20.46v.52h-23.38Z"/>
        <path class="cls-2" d="M596.46,363.69l-3.86-22.65c-.63-3.69-1.17-6.77-1.62-9.24-.45-2.47-.8-4.84-1.04-7.1-.24-2.26-.42-4.63-.52-7.1-.1-2.47-.16-5.55-.16-9.24v-4.18h-2.09v4.18c0,3.41-.05,6.26-.16,8.56-.1,2.3-.31,4.56-.63,6.79-.31,2.23-.73,4.64-1.25,7.25-.52,2.61-1.17,5.93-1.93,9.97l-4.28,22.76h-21.4l-14.51-80.38h19.62l3.24,19.31c.63,3.76,1.13,6.87,1.51,9.34.38,2.47.71,4.94.99,7.41.28,2.47.47,5.24.57,8.3.1,3.06.16,7.06.16,12v4.18h2.09v-4.18c0-3.76.02-6.96.05-9.6.03-2.64.09-4.96.16-6.94.07-1.98.17-3.74.31-5.27.14-1.53.31-3.04.52-4.54.21-1.5.43-3.1.68-4.8.24-1.7.54-3.67.89-5.9l2.82-19.31h23.17l2.82,19.62c.49,3.13.89,5.86,1.2,8.19.31,2.33.57,4.72.78,7.15.21,2.44.37,5.24.47,8.4.1,3.17.16,7.15.16,11.95v4.18h2.09v-4.18c0-3.9.07-7.31.21-10.23.14-2.92.33-5.69.57-8.3.24-2.61.57-5.27.99-7.99s.9-5.81,1.46-9.29l3.24-19.52h19.62l-14.51,80.38h-22.44Z"/>
        <path class="cls-2" d="M707.83,329.35c0,5.64-.83,10.68-2.51,15.14-1.67,4.45-4.02,8.21-7.05,11.27-3.03,3.06-6.61,5.41-10.75,7.05-4.14,1.63-8.72,2.45-13.73,2.45s-9.92-.85-14.09-2.56c-4.18-1.71-7.76-4.12-10.75-7.25-2.99-3.13-5.29-6.91-6.89-11.33-1.6-4.42-2.4-9.34-2.4-14.77v-46.03h19.31v45.93c0,11.13,4.91,16.7,14.72,16.7,4.87,0,8.56-1.43,11.06-4.28,2.51-2.85,3.76-6.99,3.76-12.42v-45.93h19.31v46.03Z"/>
        <path class="cls-2" d="M101.78,459.1c-.56,4.66-1.9,8.92-4.02,12.79-2.12,3.86-4.85,7.19-8.19,9.97-3.34,2.78-7.22,4.92-11.64,6.42-4.42,1.5-9.2,2.24-14.35,2.24-5.85,0-11.21-1.03-16.08-3.08-4.87-2.05-9.07-4.92-12.58-8.61-3.51-3.69-6.25-8.09-8.19-13.21-1.95-5.12-2.92-10.73-2.92-16.86s.97-11.74,2.92-16.86c1.95-5.12,4.7-9.52,8.25-13.21,3.55-3.69,7.76-6.56,12.63-8.61,4.87-2.05,10.23-3.08,16.08-3.08,5.15,0,9.9.75,14.25,2.24,4.35,1.5,8.19,3.62,11.53,6.37,3.34,2.75,6.07,6.04,8.19,9.86,2.12,3.83,3.46,8.07,4.02,12.74h-20.36c-.7-3.55-2.63-6.4-5.79-8.56-3.17-2.16-6.98-3.27-11.43-3.34-3.13,0-5.95.52-8.46,1.57s-4.65,2.54-6.42,4.49c-1.77,1.95-3.15,4.32-4.12,7.1-.98,2.78-1.46,5.88-1.46,9.29,0,7.03,1.79,12.51,5.38,16.44,3.58,3.93,8.58,5.9,14.98,5.9,4.45,0,8.28-1.11,11.48-3.34,3.2-2.23,5.15-5.12,5.85-8.66h20.46Z"/>
        <path class="cls-2" d="M108.56,408.57h19.31v30.79h29.23v-30.79h19.31v80.38h-19.31v-30.79h-29.23v30.79h-19.31v-80.38Z"/>
        <path class="cls-2" d="M187.89,488.95v-80.38h19.31v80.38h-19.31Z"/>
        <path class="cls-2" d="M266.39,488.95l-27.35-34.45h-1.04v34.45h-19.31v-80.38h19.31v34.45h1.04l27.35-34.45h23.49v.52l-16.28,20.46c-3.06,3.9-5.65,7.03-7.78,9.39-2.12,2.37-4.05,4.19-5.79,5.48-1.74,1.29-3.46,2.14-5.17,2.56-1.71.42-3.67.63-5.9.63h-2.09v2.09h2.09c2.37,0,4.38.17,6.05.52,1.67.35,3.36,1.15,5.06,2.4,1.7,1.25,3.6,3.1,5.69,5.53,2.09,2.44,4.73,5.71,7.93,9.81l16.08,20.46v.52h-23.38Z"/>
        <path class="cls-2" d="M348.54,488.95l-3.86-22.65c-.63-3.69-1.17-6.77-1.62-9.24-.45-2.47-.8-4.84-1.04-7.1-.24-2.26-.42-4.63-.52-7.1-.1-2.47-.16-5.55-.16-9.24v-4.18h-2.09v4.18c0,3.41-.05,6.26-.16,8.56-.1,2.3-.31,4.56-.63,6.79-.31,2.23-.73,4.64-1.25,7.25-.52,2.61-1.17,5.93-1.93,9.97l-4.28,22.76h-21.4l-14.51-80.38h19.62l3.24,19.31c.63,3.76,1.13,6.87,1.51,9.34.38,2.47.71,4.94.99,7.41.28,2.47.47,5.24.57,8.3.1,3.06.16,7.06.16,12v4.18h2.09v-4.18c0-3.76.02-6.96.05-9.6.03-2.64.09-4.96.16-6.94.07-1.98.17-3.74.31-5.27.14-1.53.31-3.04.52-4.54.21-1.5.43-3.1.68-4.8.24-1.7.54-3.67.89-5.9l2.82-19.31h23.17l2.82,19.62c.49,3.13.89,5.86,1.2,8.19.31,2.33.57,4.72.78,7.15.21,2.44.37,5.24.47,8.4.1,3.17.16,7.15.16,11.95v4.18h2.09v-4.18c0-3.9.07-7.31.21-10.23.14-2.92.33-5.69.57-8.3.24-2.61.57-5.27.99-7.99s.9-5.81,1.46-9.29l3.24-19.52h19.62l-14.51,80.38h-22.44Z"/>
        <path class="cls-2" d="M391.76,488.95v-80.38h61.59v18.79h-42.28v12h40.71v18.79h-40.71v12h42.28v18.79h-61.59Z"/>
        <path class="cls-2" d="M501.46,488.95l-10.33-22.65c-1.53-3.34-2.84-6.44-3.91-9.29-1.08-2.85-1.97-5.57-2.66-8.14-.7-2.57-1.2-5.06-1.51-7.46-.31-2.4-.47-4.82-.47-7.25v-4.7h-3.13v59.5h-19.31v-80.38h25.89l10.33,20.77c1.88,3.69,3.41,6.94,4.59,9.76,1.18,2.82,2.1,5.52,2.77,8.09.66,2.58,1.13,5.13,1.41,7.67.28,2.54.42,5.38.42,8.51v4.7h3.13v-59.5h19.31v80.38h-26.51Z"/>
        <path class="cls-2" d="M609.09,448.76c0,5.99-.92,11.45-2.77,16.39-1.84,4.94-4.45,9.17-7.83,12.68-3.38,3.51-7.43,6.25-12.16,8.19-4.73,1.95-9.95,2.92-15.66,2.92h-31.21v-80.38h31.21c5.71,0,10.92.98,15.66,2.92,4.73,1.95,8.78,4.68,12.16,8.19,3.37,3.51,5.98,7.74,7.83,12.68,1.84,4.94,2.77,10.4,2.77,16.39ZM589.25,448.66c0-7.03-1.77-12.33-5.32-15.92-3.55-3.58-8.8-5.38-15.76-5.38h-9.39v42.8h9.39c6.89,0,12.13-1.83,15.71-5.48,3.58-3.65,5.38-8.99,5.38-16.02Z"/>
        <path class="cls-2" d="M684.04,454.61c0,5.64-.83,10.68-2.51,15.14-1.67,4.45-4.02,8.21-7.05,11.27-3.03,3.06-6.61,5.41-10.75,7.05-4.14,1.63-8.72,2.45-13.73,2.45s-9.92-.85-14.09-2.56c-4.18-1.71-7.76-4.12-10.75-7.25-2.99-3.13-5.29-6.91-6.89-11.33-1.6-4.42-2.4-9.34-2.4-14.77v-46.03h19.31v45.93c0,11.13,4.91,16.7,14.72,16.7,4.87,0,8.56-1.43,11.06-4.28,2.51-2.85,3.76-6.99,3.76-12.42v-45.93h19.31v46.03Z"/>
      </g>
      <g>
        <g>
          <path class="cls-1" d="M513.94,123.68c-.44.76-.98,1.47-1.63,2.12-3.99,3.99-10.47,3.99-14.46,0-3.99-3.99-3.99-10.47,0-14.46,3.99-3.99,10.47-3.99,14.46,0,.65.65,1.19,1.36,1.62,2.11l110.92-.06-119.77-59.88-67.18,33.59v62.94l67.18,33.59,120.03-60.01-111.17.06Z"/>
          <path class="cls-1" d="M83.87,105.65v25.83c0,8.84,7.16,16,16,16h24.49s0-57.83,0-57.83h-24.49c-8.84,0-16,7.16-16,16Z"/>
        </g>
        <g>
          <path class="cls-3" d="M430.98,170.98c-13.09-.47-27.74,2.47-40.98-1.2-11.98-2.88-21.58-10.25-32.36-15.5-10.9-5.73-23.74-7.5-36.46-7.31-7.42-.02-14.97-.01-22.26,1.27-11.2,1.75-21.09,7.22-30.75,12.91-15.84,10.31-36.12,14.12-54.07,6.94-7.25-2.72-13.74-7.17-20.27-11.13-6.51-4.06-14.42-7.3-22.43-8.54-11.38-1.61-23.7-2.46-34.23,1.32-9.69,4.18-5.16,13.66-.98,21.16,6.13,10.72,14.5,20.89,24.08,28.92,31.42,26.91,78.02,33.42,116.34,18.62,8.91-3.24,17.35-8.57,25.5-13.08,10.2-5.64,19.32-7,29.88-1.98,4.61,2.06,9.52,5.11,14.13,7.73,17.36,10.07,37.38,14.96,57.86,15.15,22.34.24,44.69-5.08,63.52-16.51,7.05-4.23,17.31-11.59,10.13-19.5-8.93-9.51-31.1-18.63-46.46-19.26h-.18Z"/>
          <path class="cls-3" d="M476.63,23.69c-32.78-25.97-80.74-30.39-119.1-14.24-9.46,3.82-18.25,10.47-27.49,14.3-10.85,4.6-19.97,1.9-30.19-3.99C245.19-16.4,167.64-1.64,135.87,57.34c-5.58,10.66-14.1,26.87,2.37,30.97,12.95,3.17,28.68,2.04,40.67-4.31,9.16-4.99,16.09-14.58,25.31-20.53,16.01-10.67,38-11.86,55.1-3.28,18.39,9.57,25.75,26.7,48.98,29.28,14.16,1.6,29.75.97,41.95-7.05,7.9-5.06,14.31-12.11,21.94-17.67,10.75-7.89,24.71-11.27,37.98-10.16,15.01,1.41,29.08,8.11,43.87,4.11,7.99-1.87,16.41-5.17,23.54-8.98,3.53-1.92,6.45-3.89,8.28-5.88,6.32-7.1-.99-13.12-9.09-20.05l-.15-.12Z"/>
        </g>
      </g>
    </g>
  </g>
</svg>