<?xml version="1.0" encoding="utf-8"?>
<!-- Generator: Adobe Illustrator 28.2.0, SVG Export Plug-In . SVG Version: 6.00 Build 0)  -->
<svg version="1.1" id="Layer_1" xmlns="http://www.w3.org/2000/svg" xmlns:xlink="http://www.w3.org/1999/xlink" x="0px" y="0px"
	 viewBox="0 0 400 400" style="enable-background:new 0 0 400 400;" xml:space="preserve">
<g>
	<path d="M265.7,180.1c-7.1-0.5-13.8,3.3-17.1,9.8c-1.5,3-2.4,6-2.9,9.2h27c3.3,0,5.9,0,7.4-0.2c1.1-0.2,2.1-0.5,3-1.1v-1.2
		c0-1.7-0.3-3.2-0.8-4.8C280,184.7,273.2,179.8,265.7,180.1z"/>
	<path d="M155.6,183.7c-1.4-3.9-2.4-7.8-3.8-11.9c-1.2-3.9-2.4-7.7-3.5-11.4c-1.1-3.6-2-6.9-2.9-10.1h-0.3c-1.2,5.6-2.6,11-4.4,16.5
		c-2,6.2-3.9,12.6-5.9,19.1c-1.7,6.6-3.8,12.6-5.7,18l0,0h32.6c-0.8-2.7-1.8-5.9-3-9.2C158,191.3,156.8,187.6,155.6,183.7z"/>
	<path d="M299.3,49.9H100.6c-30.2,0-54.5,24.3-54.5,54.5v191c0,30.2,24.3,54.5,54.5,54.5h198.8c30.2,0,54.5-24.3,54.5-54.5v-191
		C354,74.3,329.5,49.9,299.3,49.9z M209.1,261.7h-26.9c-0.9,0.2-1.8-0.5-2.1-1.4l-10.5-30.8h-47.7l-9.8,30.3c-0.3,1.2-1.4,2-2.4,1.8
		H85.6c-1.4,0-1.8-0.8-1.4-2.3L125.5,141c0.5-1.4,0.8-2.4,1.4-3.9c0.5-2.7,0.8-5.6,0.8-8.4c-0.2-0.6,0.5-1.4,1.1-1.4h33.2
		c0.9,0,1.5,0.5,1.7,1.1l46.8,131.5C210.8,261.1,210.3,261.7,209.1,261.7z M309.7,210.5c-0.3,2.4-0.5,4.2-0.5,5.4
		c-0.2,0.9-0.9,1.7-1.8,1.7c-0.8,0-2.3,0.2-4.2,0.3c-2.1,0.3-4.5,0.5-7.5,0.5s-6-0.5-9.3-0.5l0,0h-40.7c0.5,4.1,1.8,8,3.9,11.4
		c2.3,3.5,5.6,6.2,9.3,7.7c5.1,2.3,10.8,3.3,16.4,3.2c4.5-0.2,9-0.5,13.4-1.4c4.1-0.5,7.8-1.5,11.4-3c0.6-0.5,1.1-0.3,1.1,1.1v19.7
		c0,0.5-0.2,1.1-0.3,1.5c-0.3,0.5-0.5,0.6-0.9,0.9c-4.1,1.8-8.3,3.2-12.8,3.9c-6,1.2-12,1.7-18.2,1.5c-9.8,0-18-1.5-24.6-4.5
		c-6.3-2.7-11.9-6.9-16.2-12.2c-4.1-5-7.1-10.7-8.9-16.8c-1.8-6-2.7-12.3-2.7-18.8c0-6.9,1.1-13.8,3.2-20.4
		c2.1-6.5,5.3-12.3,9.6-17.6c4.2-5.1,9.5-9.2,15.5-12.2c6-3,13.2-3.9,21.5-3.9c6.8-0.2,13.7,1.2,19.8,3.9c5.3,2.3,9.9,5.9,13.5,10.2
		c3.3,4.4,6,9.2,7.7,14.6c1.7,5.1,2.4,10.4,2.4,15.6C310,205.4,309.8,208.1,309.7,210.5z"/>
</g>
</svg>
