<?xml version="1.0" encoding="utf-8"?>
<!-- Generator: Adobe Illustrator 28.2.0, SVG Export Plug-In . SVG Version: 6.00 Build 0)  -->
<svg version="1.1" id="Layer_1" xmlns="http://www.w3.org/2000/svg" xmlns:xlink="http://www.w3.org/1999/xlink" x="0px" y="0px"
	 viewBox="0 0 400 400" style="enable-background:new 0 0 400 400;" xml:space="preserve">
<style type="text/css">
	.st0{fill:none;}
</style>
<g>
	<rect x="50" y="50" class="st0" width="300" height="300"/>
	<path d="M200,50c-82.8,0-150,67.2-150,150s67.2,150,150,150s150-67.2,150-150S282.8,50,200,50z M194.5,297.7
		c-44.2,0-72.9-33.2-72.9-83.4c0-65,44.8-111.8,95.4-111.8c30.4,0,48.7,15.3,48.7,36.3c0,21.6-15.6,36.9-28.9,36.9
		c-3.3,0-5-1.7-5-4.4c0-6,9.6-15,9.6-31.9c0-14.2-8.7-23.2-22.9-23.2c-30.6,0-65.4,36.2-65.4,98.7c0,36.9,18.3,63.6,47.8,63.6
		c25.5,0,47.7-18.4,60.4-44.4c1.1-2.2,2.2-3.3,3.5-3.3c1.8,0,3.5,1.5,3.8,5.1C268.5,251,241.4,297.7,194.5,297.7z"/>
</g>
</svg>
