<?xml version="1.0" encoding="utf-8"?>
<!-- Generator: Adobe Illustrator 28.2.0, SVG Export Plug-In . SVG Version: 6.00 Build 0)  -->
<svg version="1.1" id="Layer_1" xmlns="http://www.w3.org/2000/svg" xmlns:xlink="http://www.w3.org/1999/xlink" x="0px" y="0px"
	 viewBox="0 0 405.5 400" style="enable-background:new 0 0 405.5 400;" xml:space="preserve">
<path d="M0.1,98.9c3-27,25.2-47.7,52.4-48.9h230.6c16.8,1.4,32,10.2,41.6,24c4.2,6.2,7.2,13.2,8.9,20.6l67.8-33.6
	c1.5-0.8,3.3-0.2,4.1,1.4c0.2,0.3,0.3,0.6,0.3,0.9c0,12.8,0,25.4,0,38.1c0,2.6-1.5,5-3.9,6c-62.3,30.9-124.7,61.8-186.9,92.9
	l186.6,92.3c2.4,0.9,4.2,3,4.4,5.7c0,12.8,0,25.4,0,38.1c0,1.7-1.4,3.2-3.2,3.2c-0.8,0-1.4-0.2-2-0.6
	c-22.2-11.3-44.7-21.9-66.8-33.3c-1.5,5.4-3.5,10.5-5.9,15.5c-7.5,14-20.6,24-36,27.8c-5.1,1.1-10.4,1.5-15.5,1.2H61.3
	c-4.8,0-9.8,0-14.6-0.3c-24.9-3.8-44.3-24-46.7-49.1c0-12.3,0-24.6,0-36.9c0.5-3.2,2.6-5.7,5.7-6.8C44.1,238,82.3,218.8,120.8,200
	C82,180.8,43.3,161.6,4.6,142.4c-2.7-1.2-4.5-3.9-4.5-6.8C0.1,123.5-0.2,111.2,0.1,98.9z M42.7,99.2c-2.3,4.7-1.2,10.1-1.5,15
	c42.2,20.9,84.2,41.9,126.2,62.6c41.6-20.7,83.3-41.3,125-62c0-3.8,0.2-7.5,0-11.3c-1.1-6.9-7.1-12.2-14.1-12H55.6
	C50.2,91.4,45.1,94.2,42.7,99.2L42.7,99.2z M41.4,285.8c0.2,5.1-0.9,10.5,1.5,15.2c2.6,4.7,7.5,7.7,12.8,7.5h222.9
	c5.1,0,9.8-2.7,12.2-7.1c2.9-5,1.5-10.8,1.8-16.2c-41.7-20.6-83.4-41.6-125.1-62C125.3,244.3,83.2,265,41.4,285.8L41.4,285.8z"/>
</svg>
