<?xml version="1.0" encoding="utf-8"?>
<!-- Generator: Adobe Illustrator 28.2.0, SVG Export Plug-In . SVG Version: 6.00 Build 0)  -->
<svg version="1.1" id="Layer_1" xmlns="http://www.w3.org/2000/svg" xmlns:xlink="http://www.w3.org/1999/xlink" x="0px" y="0px"
	 viewBox="0 0 400 400" style="enable-background:new 0 0 400 400;" xml:space="preserve">
<g>
	<path d="M109.2,140c0.9,51.9,48.9,140,81.2,168c0,0-52.5-86.8-56.4-162.5c-3.8-75.7,49-95.4,49-95.4c-4.9,0.1-15.9,3.3-26.2,8.2
		C146.4,63.2,109.8,85.4,109.2,140z"/>
	<path d="M182.9,50.1L182.9,50.1L182.9,50.1z"/>
	<path d="M265.8,145.5c-3.8,75.8-56.4,162.5-56.4,162.5c32.4-28.3,80.2-116.4,81.1-168c-0.8-54.8-37.3-76.8-47.7-81.8
		c-10.3-4.8-21.3-8-26.2-8.2C216.8,50.1,269.7,69.8,265.8,145.5z"/>
	<path d="M164.1,158.5c2.4,40.5,12.9,91.2,30.8,149.9h8.8c18-58.8,28.3-109.3,30.8-149.8c3.4-58.5-8.7-95.9-28.2-106.4
		c-1.8-0.9-3.8-1.6-7-1.8l0,0c-3.2,0-5.2,0.8-7.1,1.8C172.8,62.5,160.8,100,164.1,158.5z"/>
	<path d="M99,146.8c-3.8-29.1,5-61.2,37.8-83.2c0,0-56.7,23.1-45.6,89.5c11.3,66.5,70.9,137.4,88.6,152.4
		C186.3,311,106.7,223.4,99,146.8z"/>
	<path d="M263.3,63.5c33,22,41.5,54.2,37.8,83.2c-7.6,77-87.4,164.4-81,158.7c17.7-15,77.4-86.1,88.7-152.4
		C320,86.5,263.3,63.5,263.3,63.5z"/>
	<polygon points="182.9,350 215.9,350 222,323 176.7,323 	"/>
</g>
</svg>
