<?xml version="1.0" encoding="utf-8"?>
<!-- Generator: Adobe Illustrator 28.2.0, SVG Export Plug-In . SVG Version: 6.00 Build 0)  -->
<svg version="1.1" id="Layer_1" xmlns="http://www.w3.org/2000/svg" xmlns:xlink="http://www.w3.org/1999/xlink" x="0px" y="0px"
	 viewBox="0 0 400 400" style="enable-background:new 0 0 400 400;" xml:space="preserve">
<g id="c133de6af664cd4f011a55de6b001a2b">
	<path d="M169.5,77.1V90h-33.1V50h33.1v14.2h-18.9v12.9H169.5z M203.5,64.2h13.2V50h-33.1c0,0,0,7.1,0,14.2
		c4.4,4.4,6.7,6.5,13.1,12.9c-3.7,0-13.1,0-13.1,0V90h33.1V77.1L203.5,64.2z M250.3,64.2h13.2V50h-33.1c0,0,0,7.1,0,14.2
		c4.4,4.4,6.7,6.5,13.1,12.9c-3.7,0-13.1,0-13.1,0V90h33.1V77.1L250.3,64.2z M307.1,109.1L287,326.6L200,350l-87-23.4L92.9,109.1
		H307.1z M266.6,153.3h-66.7H132l3.2,26.3h64.6h3.6l-3.6,1.5L137.7,207l2.1,25.7l60.2,0.2l32.3,0.1l-2.1,34.2l-30.2,8.5v0l-0.2,0.1
		l-29.2-7.4l-1.8-21.2h-0.1h-27.1h-0.1l3.5,41l54.9,16.2v0l0.1,0l54.6-15.9l7.1-81.5h-61.8h-0.2l0.2-0.1l64-27.4L266.6,153.3z"/>
</g>
</svg>
