<?xml version="1.0" encoding="utf-8"?>
<!-- Generator: Adobe Illustrator 28.2.0, SVG Export Plug-In . SVG Version: 6.00 Build 0)  -->
<svg version="1.1" id="Layer_1" xmlns="http://www.w3.org/2000/svg" xmlns:xlink="http://www.w3.org/1999/xlink" x="0px" y="0px"
	 viewBox="0 0 400 400" style="enable-background:new 0 0 400 400;" xml:space="preserve">
<g id="c133de6af664cd4f011a55de6b000d0b">
	<path d="M113.5,50H127v13.4h12.4V50h13.5v40.5h-13.5V76.9H127v13.5h-13.5L113.5,50L113.5,50z M170.7,63.4h-11.9V50h37.3v13.4h-11.9
		v27h-13.5L170.7,63.4L170.7,63.4z M202.1,50h14.1l8.7,14.2l8.7-14.2h14.1v40.5h-13.5V70.4l-9.3,14.4h-0.2l-9.3-14.4v20.1h-13.2
		L202.1,50L202.1,50z M254.3,50h13.5v27.1h19v13.4h-32.5V50z M93.7,109l19.3,216.9l86.8,24.1l87-24.1L306.3,109L93.7,109L93.7,109z
		 M265.9,160.4l-1.2,13.5l-0.5,6h-0.1H200h-0.1h-37.5l2.4,27.2h35.1h0.1h54.6h7.2l-0.6,7.1l-6.3,70.1l-0.4,4.5L200,303.9v0l-0.1,0
		l-54.5-15.1l-3.7-41.8H154h14.4l1.9,21.2l29.6,8l0,0v0l29.7-8l3.1-34.5H200h-0.1h-59.5l-6.5-73.3l-0.6-7.1h66.6h0.1h66.6
		L265.9,160.4z"/>
</g>
</svg>
