<?xml version="1.0" encoding="utf-8"?>
<!-- Generator: Adobe Illustrator 28.2.0, SVG Export Plug-In . SVG Version: 6.00 Build 0)  -->
<svg version="1.1" id="Layer_1" xmlns="http://www.w3.org/2000/svg" xmlns:xlink="http://www.w3.org/1999/xlink" x="0px" y="0px"
	 viewBox="0 0 400 400" style="enable-background:new 0 0 400 400;" xml:space="preserve">
<g>
	<path d="M156.2,212.5H188c-5.3-17.8-11.1-35.4-15.9-53.4C166.8,177.1,161.3,195.1,156.2,212.5z"/>
	<path d="M342.7,87c-6.6-12.8-16.9-23.3-29.7-29.7C298.4,50,279.4,50,241.4,50h-82.8c-38.1,0-57,0-71.5,7.4
		c-12.8,6.6-23.3,17-29.7,29.7C50,101.6,50,120.6,50,158.6v82.8c0,38.1,0,57,7.4,71.6c6.6,12.8,17,23.2,29.7,29.7
		c14.5,7.3,33.6,7.3,71.5,7.3h82.8c38.1,0,57,0,71.6-7.3c12.8-6.6,23.2-16.9,29.7-29.7c7.3-14.6,7.3-33.6,7.3-71.6v-82.8
		C350,120.5,350,101.6,342.7,87z M233.8,270.5h-26.1c-0.9,0.1-1.8-0.5-2-1.5l-10.3-30.5h-46.5l-9.5,30.2c-0.3,1.1-1.3,2-2.4,1.8
		h-23.5c-1.3,0-1.8-0.8-1.3-2.2l40.2-119c0.5-1.2,0.8-2.7,1.2-4.2c0.6-2.7,0.8-5.5,0.8-8.4c-0.2-0.9,0.6-1.5,1.3-1.5h32
		c0.9,0,1.5,0.3,1.7,1.1L235,268.4C235.4,269.8,234.9,270.5,233.8,270.5z M276.4,268.4c0,1.4-0.6,2.1-1.7,2.1h-24.6
		c-1.2,0-1.8-0.6-1.8-2.1v-98.7c0-1.2,0.6-1.8,1.7-1.8h24.8c1,0,1.6,0.6,1.6,1.8V268.4L276.4,268.4z M277,147.5
		c-0.8,2-1.8,3.9-3.3,5.4s-3.3,2.7-5.2,3.5c-2,0.6-4.1,0.9-6.2,0.9c-2.1,0.2-4-0.3-6-1.1c-1.9-0.8-3.6-1.9-5.1-3.4
		c-1.5-1.7-2.6-3.5-3.3-5.4c-0.8-2-1-4.2-0.9-6.3c0-2.1,0.3-4.2,1.1-6.2c0.8-1.9,1.9-3.8,3.5-5.2c1.5-1.5,3.3-2.5,5.1-3.3
		c2-0.8,3.9-1.2,6-1c4.8,0,8.6,1.5,11.4,4.5c1.3,1.5,2.4,3.3,3.1,5.2c0.8,2,1.1,4.1,0.9,6.2C278.2,143.3,277.7,145.6,277,147.5z"/>
</g>
</svg>
