<?xml version="1.0" encoding="utf-8"?>
<!-- Generator: Adobe Illustrator 28.2.0, SVG Export Plug-In . SVG Version: 6.00 Build 0)  -->
<svg version="1.1"
	 id="svg64" xmlns:dc="http://purl.org/dc/elements/1.1/" xmlns:sodipodi="http://sodipodi.sourceforge.net/DTD/sodipodi-0.dtd" xmlns:svg="http://www.w3.org/2000/svg" xmlns:rdf="http://www.w3.org/1999/02/22-rdf-syntax-ns#" xmlns:cc="http://creativecommons.org/ns#" xmlns:inkscape="http://www.inkscape.org/namespaces/inkscape" sodipodi:docname="Javascript-shield.svg"
	 xmlns="http://www.w3.org/2000/svg" xmlns:xlink="http://www.w3.org/1999/xlink" x="0px" y="0px" viewBox="0 0 400 400"
	 style="enable-background:new 0 0 400 400;" xml:space="preserve">
<style type="text/css">
	.st0{fill:#0E0E0F;}
</style>
<sodipodi:namedview  bordercolor="#666666" borderopacity="1" fit-margin-bottom="0" fit-margin-left="0" fit-margin-right="0" fit-margin-top="0" gridtolerance="10" guidetolerance="10" id="namedview66" inkscape:current-layer="svg64" inkscape:cx="364.99449" inkscape:cy="300.83113" inkscape:pageopacity="0" inkscape:pageshadow="2" inkscape:window-height="1016" inkscape:window-maximized="1" inkscape:window-width="1920" inkscape:window-x="0" inkscape:window-y="27" inkscape:zoom="1.0628712" objecttolerance="10" pagecolor="#ffffff" showgrid="false">
	</sodipodi:namedview>
<g>
	<path class="st0" d="M306,108.2H200H94l0,2.7c0,1.5,4.3,50.4,9.5,108.7l9.5,106l42.6,11.9l0,0c23.4,6.6,43.1,12,43.7,12
		c0.6,0,20.5-5.3,44.2-11.9c38.1-10.5,43.2-12.1,43.5-13.4c0.4-1.8,19-212.1,19-214.4L306,108.2z M141.3,231.9
		c0-2.2,7-80.4,7.9-88.5c0-0.2,0-0.4,0.1-0.6c0.3-3.1,0.6-5.9,0.6-6.4c0,0,0,0,0,0c0.4-0.7,11.7-0.8,53.5-0.7l53.5,0.2l2.3,25.8
		c1.3,14.2,2.4,27.2,2.6,28.8l0.3,3h-13.9c-13.7,0-13.9,0-13.9-1.5c0-3-2.3-25.3-2.6-25.7c-0.7-0.7-17.9-1.5-31.8-1.7v-0.3
		l-12.4,0.3c-2.8,0.1-5.3,0.2-7.4,0.3c-3.2,0.1-5.3,0.2-5.3,0.2c0,0-0.2,1.4-0.4,3.8c-0.4,3.7-1,10-1.7,17.1l-1.9,20.4h14.5H200
		h16.7c43.2,0,45.7,0.1,45.4,1.3c-0.2,0.7-1.9,18.9-3.8,40.5c-1.9,21.6-3.7,39.6-3.9,40c-0.3,0.4-12.5,4.1-27.2,8.2h0
		c-14.7,4.1-27.3,7.4-27.8,7.4c-0.3,0-1.8-0.4-4.2-1l-22-6.1c-4-1.1-7.8-2.2-11.3-3.2c-8.1-2.3-14.8-4.3-16.4-4.8
		c-0.4-0.6-1.3-7.9-2.2-16.1c-0.9-9.7-1.9-20.7-1.9-23.4l0-2.7l0,0h13.5h13.5l0,0.4l0.4,4c0,0.1,0,0.3,0,0.4c0,0.2,0,0.4,0.1,0.6
		c0.1,0.7,0.1,1.5,0.2,2.4c0,0,0,0.1,0,0.1c0.1,0.6,0.1,1.3,0.2,2c0,0.3,0.1,0.6,0.1,0.9c0.1,0.7,0.1,1.4,0.2,2
		c0.1,0.7,0.1,1.4,0.2,2l0.5,6l14,3.8c0,0,0.1,0,0.1,0c7.6,2.1,14.2,3.8,14.7,3.8c0,0,0.1,0,0.1,0c0.2,0,0.3,0,0.4,0
		c1.7,0,28.5-7.1,29.1-7.8c0.3-0.2,1-6.7,1.6-14.4c0.6-7.7,1.3-15.2,1.6-16.7l0.4-2.7H200v0h-29.4h-29.4V231.9z"/>
	<path class="st0" d="M238.7,89.6v-4.7v-4.7l-9.1-9.8l-9.1-9.8l8.7-0.2l8.7-0.2v-5.3v-5.3h-18.6h-18.6v4.6v4.6l9,9.7
		c4.9,5.3,9,9.9,9,10.1c0,0.2-4,0.4-9,0.4h-9v5.4v5.4h19H238.7z"/>
	<polygon class="st0" points="194.3,89.6 194.3,69.6 194.3,49.5 187.5,49.5 180.7,49.5 180.7,62.8 180.7,76 171,76 161.3,76 
		161.3,82.8 161.3,89.6 177.8,89.6 	"/>
</g>
</svg>
