<?xml version="1.0" encoding="utf-8"?>
<!-- Generator: Adobe Illustrator 28.2.0, SVG Export Plug-In . SVG Version: 6.00 Build 0)  -->
<svg version="1.1" id="Layer_1" xmlns="http://www.w3.org/2000/svg" xmlns:xlink="http://www.w3.org/1999/xlink" x="0px" y="0px"
	 viewBox="0 0 400 400" style="enable-background:new 0 0 400 400;" xml:space="preserve">
<g>
	<path d="M155,137.9c-5.2,0-10,0.3-12.4,0.5v50.1c3,0.3,5.2,0.3,10.5,0.3c15.2,0,29.5-5.2,29.5-26.1
		C182.6,146.2,172.2,137.9,155,137.9z"/>
	<path d="M342.7,87c-6.6-12.8-16.9-23.3-29.7-29.7C298.4,50,279.4,50,241.4,50h-82.8c-38.1,0-57,0-71.5,7.4
		c-12.8,6.6-23.3,17-29.7,29.7C50,101.6,50,120.6,50,158.6v82.8c0,38.1,0,57,7.4,71.6c6.6,12.8,17,23.2,29.7,29.7
		c14.5,7.3,33.6,7.3,71.5,7.3h82.8c38.1,0,57,0,71.6-7.3c12.8-6.6,23.2-16.9,29.7-29.7c7.3-14.6,7.3-33.6,7.3-71.6v-82.8
		C350,120.5,350,101.6,342.7,87z M152.4,209.3c-5,0-6.8-0.3-10.2-0.3v49.8c0,1-0.3,1.5-1.5,1.5h-19.8c-0.9,0-1.5-0.3-1.5-1.5V119.4
		c0-0.9,1.8-1.5,2.8-1.5c8.3-0.3,20.5-0.6,33.5-0.6c36,0,50.1,19.8,50,44.8C205.7,195.2,181.8,209.3,152.4,209.3z M246,262.9
		c-9.2,0.3-18.3-1.5-26.5-5.5c-0.9-0.5-1.1-1-1.1-2.1v-19.1c0-1.3,0.6-1.7,1.5-1.1c7.8,5,16.8,7.7,26.1,7.7
		c10.2,0,14.6-4.3,14.6-10.2c0-4.7-3-8.8-16.1-15.6c-18.4-8.8-26.1-17.8-26.1-32.7c0-16.8,13.1-30.6,35.9-30.6
		c7.9-0.3,15.7,0.9,23.2,3.6c0.9,0.6,1.4,1.5,1.4,2.5v17.8c0,1.1-0.6,1.7-2,1.3c-7-3.9-14.8-6-22.7-5.8c-10.2,0-13.8,5.2-13.8,9.5
		c0,4.7,2.4,8,16.1,15c20.4,9.9,26.7,19.3,26.7,33.3C283.2,251.8,267.4,262.9,246,262.9z"/>
</g>
</svg>
