<?xml version="1.0" encoding="utf-8"?>
<!-- Generator: Adobe Illustrator 28.2.0, SVG Export Plug-In . SVG Version: 6.00 Build 0)  -->
<svg version="1.1" id="Layer_1" xmlns="http://www.w3.org/2000/svg" xmlns:xlink="http://www.w3.org/1999/xlink" x="0px" y="0px"
	 viewBox="0 0 400 400" style="enable-background:new 0 0 400 400;" xml:space="preserve">
<g>
	<path d="M176,154.2c-4.8-2-9.9-2.7-15.2-2.5c-3.3,0-6.3,0-8.7,0.1c-2.2-0.3-4.1-0.1-5,0v43.1c1.8,0.2,3.5,0.3,5,0.3h6.8
		c4.9,0,10-0.8,14.7-2.2c4.1-1.2,7.7-3.6,10.5-6.8c2.7-3.2,3.9-7.5,3.9-13.2c0.2-3.9-0.9-8-3-11.4
		C182.7,158.3,179.7,155.8,176,154.2z"/>
	<path d="M299.4,50H100.7c-30.2,0-54.6,24.3-54.5,54.5v191.1c0,30.1,24.3,54.4,54.5,54.4h198.7c30.1,0,54.4-24.3,54.4-54.4V104.5
		C353.9,74.3,329.6,50,299.4,50z M208.7,199.1c-5.1,7.2-12.3,12.6-20.7,15.6c-8.7,3.2-18.3,4.3-28.8,4.3c-3.2,0-5.1,0-6.5-0.2
		c-1.3-0.2-3.2-0.2-5.5-0.2v41.1c0.2,0.9-0.5,1.6-1.3,1.8h-24.9c-1.2,0.5-1.7-0.1-1.7-1.2v-132c0-0.9,0.5-1.3,1.3-1.3
		c2.2,0,4.2,0,7.2-0.2c3.2-0.2,6.3-0.2,9.7-0.3c3.5-0.2,7.2-0.2,11.1-0.3c3.9-0.2,7.8-0.2,11.7-0.2c10.5,0,19.2,1.3,26.4,3.9
		c6.4,2.2,12.3,5.7,17.2,10.5c4,4,7.3,9.2,9.3,14.5c2,5.4,3,11,3,16.7C216.3,182.9,213.8,191.9,208.7,199.1z M295.8,183.8
		c0,1.1-0.6,1.4-2.1,1.4c-4.7-0.2-9.3,0.3-13.8,1.3c-3.8,0.8-7.3,2-10.8,3.5c-2.4,1.2-4.8,2.7-6.6,4.8v65.4c0,1.3-0.5,1.8-1.7,1.8
		h-25.2c-1.1,0.2-2-0.5-2.1-1.5v-71.5c0-3.2,0-6.3-0.2-9.6s-0.2-6.6-0.3-10.1c0-3-0.3-5.7-0.4-8.7c-0.2-0.6,0.3-1.3,0.9-1.3
		c0.2-0.2,0.3-0.2,0.4,0h22.5c1.3,0,2.2,0.9,2.7,2.1c0.5,1.1,0.6,2.1,0.8,3.2c0.3,1.3,0.5,2.7,0.6,3.9c0.1,1.3,0.3,3,0.3,4.7
		c3.9-4.5,8.4-8.2,13.7-11.1c5.8-3.3,12.8-4.9,19.5-4.9c0.9-0.2,1.6,0.4,1.8,1.3L295.8,183.8L295.8,183.8z"/>
</g>
</svg>
